<mxfile host="app.diagrams.net" agent="Mozilla/5.0 (Windows NT 10.0; Win64; x64) AppleWebKit/537.36 (KHTML, like Gecko) Chrome/135.0.0.0 Safari/537.36" version="26.2.13">
  <diagram name="Page-1" id="4bd5d27a-524c-7e24-5d5f-89a86ee4fca1">
    <mxGraphModel dx="33640" dy="17850" grid="1" gridSize="9.842500000000001" guides="1" tooltips="1" connect="1" arrows="1" fold="1" page="1" pageScale="1" pageWidth="1100" pageHeight="850" background="none" math="0" shadow="0">
      <root>
        <mxCell id="0" />
        <mxCell id="1" parent="0" />
        <mxCell id="QfmQ7vgXu_iXUv1zbBvU-1" value="" style="whiteSpace=wrap;html=1;movable=1;resizable=1;rotatable=1;deletable=1;editable=1;locked=0;connectable=1;" parent="1" vertex="1">
          <mxGeometry width="11023.6" height="12598.4" as="geometry" />
        </mxCell>
        <mxCell id="QfmQ7vgXu_iXUv1zbBvU-2" value="&lt;font style=&quot;font-size: 500px;&quot;&gt;150*200&lt;/font&gt;&lt;div&gt;&lt;font style=&quot;font-size: 500px;&quot;&gt;折叠沙发床&lt;/font&gt;&lt;/div&gt;" style="rounded=0;whiteSpace=wrap;html=1;movable=1;resizable=1;rotatable=1;deletable=1;editable=1;locked=0;connectable=1;" parent="1" vertex="1">
          <mxGeometry y="393.7" width="7874" height="5905.5" as="geometry" />
        </mxCell>
        <mxCell id="QfmQ7vgXu_iXUv1zbBvU-3" value="" style="rounded=0;whiteSpace=wrap;html=1;align=center;movable=1;resizable=1;rotatable=1;deletable=1;editable=1;locked=0;connectable=1;" parent="1" vertex="1">
          <mxGeometry width="2913.3799999999997" height="393.7" as="geometry" />
        </mxCell>
        <mxCell id="QfmQ7vgXu_iXUv1zbBvU-4" value="" style="rounded=0;whiteSpace=wrap;html=1;movable=1;resizable=1;rotatable=1;deletable=1;editable=1;locked=0;connectable=1;" parent="1" vertex="1">
          <mxGeometry y="6299.2" width="2913.3799999999997" height="393.7" as="geometry" />
        </mxCell>
        <mxCell id="QfmQ7vgXu_iXUv1zbBvU-5" value="&lt;font style=&quot;font-size: 500px;&quot;&gt;飘窗&lt;/font&gt;&lt;div&gt;&lt;br&gt;&lt;/div&gt;" style="rounded=0;whiteSpace=wrap;html=1;movable=1;resizable=1;rotatable=1;deletable=1;editable=1;locked=0;connectable=1;" parent="1" vertex="1">
          <mxGeometry x="5905.5" y="-787.4" width="5116.1314999999995" height="787.4" as="geometry" />
        </mxCell>
        <mxCell id="QfmQ7vgXu_iXUv1zbBvU-6" value="&lt;font style=&quot;font-size: 500px;&quot;&gt;150*60&lt;/font&gt;&lt;div&gt;&lt;font style=&quot;font-size: 500px;&quot;&gt;衣柜&lt;/font&gt;&lt;/div&gt;" style="rounded=0;whiteSpace=wrap;html=1;movable=1;resizable=1;rotatable=1;deletable=1;editable=1;locked=0;connectable=1;" parent="1" vertex="1">
          <mxGeometry y="6692.9" width="2362.2" height="5905.5" as="geometry" />
        </mxCell>
        <mxCell id="2Vlns5ZEm93gp3pkl4o4-1" value="桌子&lt;div&gt;&lt;br&gt;&lt;/div&gt;" style="verticalLabelPosition=bottom;html=1;verticalAlign=top;align=center;shape=mxgraph.floorplan.table;movable=1;resizable=1;rotatable=1;deletable=1;editable=1;locked=0;connectable=1;" vertex="1" parent="1">
          <mxGeometry x="2362.2" y="10245.429999999998" width="4330.7" height="2362.2" as="geometry" />
        </mxCell>
        <mxCell id="2Vlns5ZEm93gp3pkl4o4-2" value="" style="verticalLabelPosition=bottom;html=1;verticalAlign=top;align=center;shape=mxgraph.floorplan.table;direction=south;movable=1;resizable=1;rotatable=1;deletable=1;editable=1;locked=0;connectable=1;" vertex="1" parent="1">
          <mxGeometry x="8661.4" width="2362.2" height="4724.4" as="geometry" />
        </mxCell>
        <mxCell id="QfmQ7vgXu_iXUv1zbBvU-9" value="" style="rounded=0;whiteSpace=wrap;html=1;movable=1;resizable=1;rotatable=1;deletable=1;editable=1;locked=0;connectable=1;" parent="1" vertex="1">
          <mxGeometry x="6929.12" y="12204.699999999999" width="3931.0944999999997" height="787.4" as="geometry" />
        </mxCell>
        <mxCell id="QfmQ7vgXu_iXUv1zbBvU-14" value="" style="verticalLabelPosition=bottom;html=1;verticalAlign=top;align=center;shape=mxgraph.floorplan.doorLeft;direction=west;movable=1;resizable=1;rotatable=1;deletable=1;editable=1;locked=0;connectable=1;" parent="1" vertex="1">
          <mxGeometry x="6929.12" y="8654.55" width="3937" height="3937" as="geometry" />
        </mxCell>
        <mxCell id="QfmQ7vgXu_iXUv1zbBvU-16" style="edgeStyle=none;rounded=0;orthogonalLoop=1;jettySize=auto;html=1;exitX=0;exitY=0.75;exitDx=0;exitDy=0;movable=1;resizable=1;rotatable=1;deletable=1;editable=1;locked=0;connectable=1;" parent="1" source="QfmQ7vgXu_iXUv1zbBvU-2" target="QfmQ7vgXu_iXUv1zbBvU-2" edge="1">
          <mxGeometry relative="1" as="geometry" />
        </mxCell>
        <mxCell id="2Vlns5ZEm93gp3pkl4o4-3" value="&lt;div&gt;&lt;br&gt;&lt;/div&gt;沙发床&lt;span style=&quot;background-color: transparent; color: light-dark(rgb(0, 0, 0), rgb(255, 255, 255));&quot;&gt;打开效果&lt;/span&gt;&lt;div&gt;&lt;div&gt;&lt;br&gt;&lt;/div&gt;&lt;/div&gt;" style="text;strokeColor=none;align=center;fillColor=none;html=1;verticalAlign=middle;whiteSpace=wrap;rounded=0;fontSize=600;movable=0;resizable=0;rotatable=0;deletable=0;editable=0;locked=1;connectable=0;" vertex="1" parent="1">
          <mxGeometry x="2687" y="14596.43" width="5324.79" height="30" as="geometry" />
        </mxCell>
        <mxCell id="2Vlns5ZEm93gp3pkl4o4-12" value="60*110桌子" style="text;strokeColor=none;align=center;fillColor=none;html=1;verticalAlign=middle;whiteSpace=wrap;rounded=0;fontSize=500;movable=1;resizable=1;rotatable=1;deletable=1;editable=1;locked=0;connectable=1;" vertex="1" parent="1">
          <mxGeometry x="4311.02" y="11475" width="395.6685" height="118.11" as="geometry" />
        </mxCell>
        <mxCell id="2Vlns5ZEm93gp3pkl4o4-14" value="120*60&lt;div&gt;桌子&lt;/div&gt;" style="text;strokeColor=none;align=center;fillColor=none;html=1;verticalAlign=middle;whiteSpace=wrap;rounded=0;fontSize=500;movable=1;resizable=1;rotatable=1;deletable=1;editable=1;locked=0;connectable=1;" vertex="1" parent="1">
          <mxGeometry x="8887.78" y="1082.67" width="1889.76" height="2342.51" as="geometry" />
        </mxCell>
        <mxCell id="2Vlns5ZEm93gp3pkl4o4-30" value="&lt;div&gt;&lt;br&gt;&lt;/div&gt;沙发床收起&lt;span style=&quot;background-color: transparent; color: light-dark(rgb(0, 0, 0), rgb(255, 255, 255));&quot;&gt;效果&lt;/span&gt;&lt;div&gt;&lt;div&gt;&lt;br&gt;&lt;/div&gt;&lt;/div&gt;" style="text;strokeColor=none;align=center;fillColor=none;html=1;verticalAlign=middle;whiteSpace=wrap;rounded=0;fontSize=600;movable=1;resizable=1;rotatable=1;deletable=1;editable=1;locked=0;connectable=1;" vertex="1" parent="1">
          <mxGeometry x="16584.6125" y="14635.802500000002" width="5324.79" height="30" as="geometry" />
        </mxCell>
        <mxCell id="2Vlns5ZEm93gp3pkl4o4-33" value="" style="rounded=0;whiteSpace=wrap;html=1;direction=south;movable=1;resizable=1;rotatable=1;deletable=1;editable=1;locked=0;connectable=1;" vertex="1" parent="1">
          <mxGeometry x="10861.9725" y="4723.6075" width="137.795" height="3937" as="geometry" />
        </mxCell>
        <mxCell id="2Vlns5ZEm93gp3pkl4o4-34" style="edgeStyle=orthogonalEdgeStyle;rounded=0;orthogonalLoop=1;jettySize=auto;html=1;exitX=0.75;exitY=0;exitDx=0;exitDy=0;entryX=0.8;entryY=0.1;entryDx=0;entryDy=0;entryPerimeter=0;movable=1;resizable=1;rotatable=1;deletable=1;editable=1;locked=0;connectable=1;" edge="1" parent="1" source="2Vlns5ZEm93gp3pkl4o4-33" target="2Vlns5ZEm93gp3pkl4o4-33">
          <mxGeometry relative="1" as="geometry" />
        </mxCell>
        <mxCell id="2Vlns5ZEm93gp3pkl4o4-35" value="100*35&lt;span style=&quot;background-color: transparent; color: light-dark(rgb(0, 0, 0), rgb(255, 255, 255));&quot;&gt;画板&lt;/span&gt;" style="text;strokeColor=none;align=center;fillColor=none;html=1;verticalAlign=middle;whiteSpace=wrap;rounded=0;fontSize=500;" vertex="1" parent="1">
          <mxGeometry x="11737.8325" y="5649.592500000001" width="118.11" height="1968.5" as="geometry" />
        </mxCell>
      </root>
    </mxGraphModel>
  </diagram>
</mxfile>
